<svg width="225" height="53" viewBox="0 0 225 53" fill="none" xmlns="http://www.w3.org/2000/svg">
<path d="M8.1108 22.951L11.7045 30.1385L15.4261 22.951H22.429L16.3352 33.8601L22.6562 44.7692H15.7102L11.7045 37.5249L7.7983 44.7692H0.752841L7.08807 33.8601L1.06534 22.951H8.1108ZM29.8473 52.951C29.014 52.951 28.228 52.8848 27.4893 52.7522C26.7507 52.6291 26.1162 52.4634 25.5859 52.255L27.12 47.2124C27.8018 47.4397 28.4174 47.5723 28.9666 47.6101C29.5253 47.648 30.0036 47.5581 30.4013 47.3402C30.8085 47.1319 31.121 46.7579 31.3388 46.2181L31.6087 45.5647L23.853 22.951H31.1257L35.1456 38.5192H35.3729L39.4496 22.951H46.7649L38.5405 46.8573C38.1428 48.0505 37.5793 49.1016 36.8501 50.0107C36.1304 50.9293 35.1977 51.649 34.0518 52.1698C32.9155 52.6906 31.514 52.951 29.8473 52.951ZM58.9098 45.1812C56.6087 45.1812 54.6342 44.7077 52.9865 43.7607C51.3482 42.8137 50.0888 41.4974 49.2081 39.8118C48.3274 38.1168 47.8871 36.1565 47.8871 33.9312C47.8871 31.6963 48.3274 29.7361 49.2081 28.0505C50.0982 26.3554 51.3625 25.0344 53.0007 24.0874C54.6484 23.1404 56.6134 22.667 58.8956 22.667C60.9126 22.667 62.6693 23.0315 64.1655 23.7607C65.6712 24.4899 66.8454 25.5221 67.6882 26.8573C68.5405 28.1831 68.9903 29.7408 69.0376 31.5306H62.5462C62.4136 30.4132 62.0348 29.5372 61.4098 28.9027C60.7943 28.2683 59.9893 27.951 58.995 27.951C58.1901 27.951 57.4846 28.1783 56.8786 28.6329C56.2725 29.0779 55.799 29.7408 55.4581 30.6215C55.1267 31.4927 54.9609 32.5723 54.9609 33.8601C54.9609 35.148 55.1267 36.237 55.4581 37.1272C55.799 38.0079 56.2725 38.6755 56.8786 39.13C57.4846 39.5751 58.1901 39.7976 58.995 39.7976C59.639 39.7976 60.2071 39.6603 60.6996 39.3857C61.2015 39.1111 61.6134 38.7086 61.9354 38.1783C62.2573 37.6385 62.4609 36.9851 62.5462 36.2181H69.0376C68.9714 38.0173 68.5215 39.5893 67.6882 40.934C66.8643 42.2787 65.7043 43.3251 64.2081 44.0732C62.7214 44.8118 60.9553 45.1812 58.9098 45.1812Z" fill="#5D87FF"/>
<path d="M73.3786 44.7692V17.9492H82.8466C84.6226 17.9492 86.1826 18.2852 87.5266 18.9572C88.8706 19.6292 89.9146 20.5892 90.6586 21.8372C91.4266 23.0852 91.8106 24.5492 91.8106 26.2292C91.8106 27.9092 91.4266 29.3732 90.6586 30.6212C89.9146 31.8452 88.8706 32.8052 87.5266 33.5012C86.2066 34.1732 84.6466 34.5092 82.8466 34.5092H76.9066V44.7692H73.3786ZM76.9066 31.2692H82.9546C84.0346 31.2692 84.9706 31.0652 85.7626 30.6572C86.5546 30.2492 87.1666 29.6612 87.5986 28.8932C88.0306 28.1252 88.2466 27.2372 88.2466 26.2292C88.2466 25.1972 88.0306 24.3092 87.5986 23.5652C87.1666 22.7972 86.5546 22.2092 85.7626 21.8012C84.9706 21.3932 84.0346 21.1892 82.9546 21.1892H76.9066V31.2692ZM100.538 45.2012C99.2658 45.2012 98.1378 44.9732 97.1538 44.5172C96.1938 44.0372 95.4378 43.3892 94.8858 42.5732C94.3338 41.7332 94.0578 40.7732 94.0578 39.6932C94.0578 38.6612 94.2738 37.7372 94.7058 36.9212C95.1618 36.0812 95.8578 35.3732 96.7938 34.7972C97.7538 34.2212 98.9538 33.8132 100.394 33.5732L107.594 32.3852V35.1932L101.15 36.2732C99.9018 36.4892 98.9898 36.8852 98.4138 37.4612C97.8618 38.0372 97.5858 38.7452 97.5858 39.5852C97.5858 40.3772 97.8978 41.0372 98.5218 41.5652C99.1698 42.0932 99.9738 42.3572 100.934 42.3572C102.158 42.3572 103.214 42.1052 104.102 41.6012C105.014 41.0732 105.722 40.3652 106.226 39.4772C106.754 38.5892 107.018 37.6052 107.018 36.5252V31.5932C107.018 30.5372 106.622 29.6852 105.83 29.0372C105.062 28.3652 104.042 28.0292 102.77 28.0292C101.666 28.0292 100.682 28.3172 99.8178 28.8932C98.9778 29.4452 98.3538 30.1892 97.9458 31.1252L95.0298 29.6132C95.3898 28.7252 95.9658 27.9332 96.7578 27.2372C97.5498 26.5172 98.4738 25.9532 99.5298 25.5452C100.586 25.1372 101.69 24.9332 102.842 24.9332C104.33 24.9332 105.638 25.2212 106.766 25.7972C107.894 26.3492 108.77 27.1292 109.394 28.1372C110.042 29.1212 110.366 30.2732 110.366 31.5932V44.7692H107.09V41.0972L107.702 41.3132C107.294 42.0812 106.742 42.7532 106.046 43.3292C105.35 43.9052 104.534 44.3612 103.598 44.6972C102.662 45.0332 101.642 45.2012 100.538 45.2012ZM116.601 52.6892C116.169 52.6892 115.737 52.6532 115.305 52.5812C114.873 52.5092 114.465 52.3892 114.081 52.2212V49.2332C114.345 49.2812 114.669 49.3292 115.053 49.3772C115.461 49.4492 115.857 49.4852 116.241 49.4852C117.369 49.4852 118.221 49.2332 118.797 48.7292C119.397 48.2492 119.961 47.4092 120.489 46.2092L121.713 43.2932L121.641 46.2092L113.361 25.3652H116.997L123.441 41.9252H122.361L128.769 25.3652H132.477L123.729 47.0732C123.321 48.1052 122.793 49.0412 122.145 49.8812C121.521 50.7452 120.753 51.4292 119.841 51.9332C118.929 52.4372 117.849 52.6892 116.601 52.6892ZM135.455 44.7692V25.3652H138.731V29.3252L138.263 28.7132C138.743 27.4892 139.511 26.5532 140.567 25.9052C141.623 25.2572 142.811 24.9332 144.131 24.9332C145.643 24.9332 146.999 25.3532 148.199 26.1932C149.423 27.0332 150.263 28.1372 150.719 29.5052L149.783 29.5412C150.287 28.0292 151.139 26.8892 152.339 26.1212C153.539 25.3292 154.871 24.9332 156.335 24.9332C157.679 24.9332 158.891 25.2452 159.971 25.8692C161.075 26.4932 161.951 27.3572 162.599 28.4612C163.247 29.5652 163.571 30.8132 163.571 32.2052V44.7692H160.187V33.2852C160.187 32.2052 159.995 31.2932 159.611 30.5492C159.227 29.8052 158.699 29.2292 158.027 28.8212C157.379 28.3892 156.611 28.1732 155.723 28.1732C154.859 28.1732 154.079 28.3892 153.383 28.8212C152.711 29.2292 152.171 29.8172 151.763 30.5852C151.379 31.3292 151.187 32.2292 151.187 33.2852V44.7692H147.803V33.2852C147.803 32.2052 147.611 31.2932 147.227 30.5492C146.843 29.8052 146.315 29.2292 145.643 28.8212C144.995 28.3892 144.227 28.1732 143.339 28.1732C142.475 28.1732 141.695 28.3892 140.999 28.8212C140.327 29.2292 139.787 29.8172 139.379 30.5852C138.995 31.3292 138.803 32.2292 138.803 33.2852V44.7692H135.455ZM177.254 45.2012C175.382 45.2012 173.714 44.7572 172.25 43.8692C170.786 42.9812 169.634 41.7692 168.794 40.2332C167.954 38.6732 167.534 36.9332 167.534 35.0132C167.534 33.0692 167.942 31.3412 168.758 29.8292C169.598 28.3172 170.726 27.1292 172.142 26.2652C173.582 25.3772 175.19 24.9332 176.966 24.9332C178.406 24.9332 179.678 25.1972 180.782 25.7252C181.91 26.2292 182.858 26.9252 183.626 27.8132C184.418 28.6772 185.018 29.6732 185.426 30.8012C185.858 31.9052 186.074 33.0572 186.074 34.2572C186.074 34.5212 186.05 34.8212 186.002 35.1572C185.978 35.4692 185.942 35.7692 185.894 36.0572H169.982V33.1772H183.95L182.366 34.4732C182.582 33.2252 182.462 32.1092 182.006 31.1252C181.55 30.1412 180.878 29.3612 179.99 28.7852C179.102 28.2092 178.094 27.9212 176.966 27.9212C175.838 27.9212 174.806 28.2092 173.87 28.7852C172.934 29.3612 172.202 30.1892 171.674 31.2692C171.17 32.3252 170.966 33.5852 171.062 35.0492C170.966 36.4652 171.182 37.7132 171.71 38.7932C172.262 39.8492 173.03 40.6772 174.014 41.2772C175.022 41.8532 176.114 42.1412 177.29 42.1412C178.586 42.1412 179.678 41.8412 180.566 41.2412C181.454 40.6412 182.174 39.8732 182.726 38.9372L185.534 40.3772C185.15 41.2652 184.55 42.0812 183.734 42.8252C182.942 43.5452 181.994 44.1212 180.89 44.5532C179.81 44.9852 178.598 45.2012 177.254 45.2012ZM190.44 44.7692V25.3652H193.716V29.1452L193.176 28.8212C193.656 27.5972 194.424 26.6492 195.48 25.9772C196.56 25.2812 197.82 24.9332 199.26 24.9332C200.652 24.9332 201.888 25.2452 202.968 25.8692C204.072 26.4932 204.936 27.3572 205.56 28.4612C206.208 29.5652 206.532 30.8132 206.532 32.2052V44.7692H203.148V33.2852C203.148 32.2052 202.956 31.2932 202.572 30.5492C202.188 29.8052 201.636 29.2292 200.916 28.8212C200.22 28.3892 199.416 28.1732 198.504 28.1732C197.592 28.1732 196.776 28.3892 196.056 28.8212C195.36 29.2292 194.808 29.8172 194.4 30.5852C193.992 31.3292 193.788 32.2292 193.788 33.2852V44.7692H190.44ZM219.206 44.9852C217.31 44.9852 215.846 44.4452 214.814 43.3652C213.806 42.2852 213.302 40.7612 213.302 38.7932V28.5692H209.774V25.3652H210.494C211.358 25.3652 212.042 25.1012 212.546 24.5732C213.05 24.0452 213.302 23.3492 213.302 22.4852V20.9012H216.65V25.3652H221.006V28.5692H216.65V38.6852C216.65 39.3332 216.746 39.8972 216.938 40.3772C217.154 40.8572 217.502 41.2412 217.982 41.5292C218.462 41.7932 219.098 41.9252 219.89 41.9252C220.058 41.9252 220.262 41.9132 220.502 41.8892C220.766 41.8652 221.006 41.8412 221.222 41.8172V44.7692C220.91 44.8412 220.562 44.8892 220.178 44.9132C219.794 44.9612 219.47 44.9852 219.206 44.9852Z" fill="#1E1E1E"/>
<path d="M1.078 15V4.57H7.952V6.04H2.73V9.036H7.672V10.506H2.73V13.53H7.952V15H1.078ZM9.3322 15V7.426H10.8442V9.064L10.6482 8.812C10.8069 8.29867 11.0962 7.91133 11.5162 7.65C11.9362 7.38867 12.4169 7.258 12.9582 7.258C13.5649 7.258 14.1015 7.42133 14.5682 7.748C15.0442 8.06533 15.3615 8.49 15.5202 9.022L15.0722 9.064C15.2962 8.45733 15.6369 8.00467 16.0942 7.706C16.5609 7.40733 17.0929 7.258 17.6902 7.258C18.2129 7.258 18.6842 7.37933 19.1042 7.622C19.5335 7.86467 19.8742 8.20067 20.1262 8.63C20.3782 9.05933 20.5042 9.54933 20.5042 10.1V15H18.9222V10.534C18.9222 10.1513 18.8522 9.82933 18.7122 9.568C18.5815 9.29733 18.3949 9.092 18.1522 8.952C17.9189 8.80267 17.6435 8.728 17.3262 8.728C17.0089 8.728 16.7289 8.80267 16.4862 8.952C16.2435 9.092 16.0522 9.29733 15.9122 9.568C15.7722 9.83867 15.7022 10.1607 15.7022 10.534V15H14.1342V10.534C14.1342 10.1513 14.0642 9.82933 13.9242 9.568C13.7935 9.29733 13.6069 9.092 13.3642 8.952C13.1309 8.80267 12.8509 8.728 12.5242 8.728C12.2069 8.728 11.9269 8.80267 11.6842 8.952C11.4415 9.092 11.2502 9.29733 11.1102 9.568C10.9795 9.83867 10.9142 10.1607 10.9142 10.534V15H9.3322ZM22.1974 17.8V7.426H23.7094V8.994L23.5274 8.63C23.8074 8.20067 24.1808 7.86467 24.6474 7.622C25.1141 7.37933 25.6461 7.258 26.2434 7.258C26.9621 7.258 27.6061 7.43067 28.1754 7.776C28.7541 8.12133 29.2068 8.59267 29.5334 9.19C29.8694 9.78733 30.0374 10.4593 30.0374 11.206C30.0374 11.9527 29.8694 12.6247 29.5334 13.222C29.2068 13.8193 28.7588 14.2953 28.1894 14.65C27.6201 14.9953 26.9714 15.168 26.2434 15.168C25.6554 15.168 25.1188 15.0467 24.6334 14.804C24.1574 14.5613 23.7888 14.2113 23.5274 13.754L23.7794 13.46V17.8H22.1974ZM26.0894 13.698C26.5374 13.698 26.9341 13.5907 27.2794 13.376C27.6248 13.1613 27.8954 12.8673 28.0914 12.494C28.2968 12.1113 28.3994 11.682 28.3994 11.206C28.3994 10.73 28.2968 10.3053 28.0914 9.932C27.8954 9.55867 27.6248 9.26467 27.2794 9.05C26.9341 8.83533 26.5374 8.728 26.0894 8.728C25.6508 8.728 25.2541 8.83533 24.8994 9.05C24.5541 9.26467 24.2788 9.55867 24.0734 9.932C23.8774 10.3053 23.7794 10.73 23.7794 11.206C23.7794 11.682 23.8774 12.1113 24.0734 12.494C24.2788 12.8673 24.5541 13.1613 24.8994 13.376C25.2541 13.5907 25.6508 13.698 26.0894 13.698ZM31.5763 15V4.402H33.1583V15H31.5763ZM38.662 15.168C37.934 15.168 37.2667 14.9953 36.66 14.65C36.0627 14.3047 35.5867 13.8333 35.232 13.236C34.8773 12.6387 34.7 11.962 34.7 11.206C34.7 10.4407 34.8773 9.764 35.232 9.176C35.5867 8.57867 36.0627 8.112 36.66 7.776C37.2573 7.43067 37.9247 7.258 38.662 7.258C39.4087 7.258 40.076 7.43067 40.664 7.776C41.2613 8.112 41.7327 8.57867 42.078 9.176C42.4327 9.764 42.61 10.4407 42.61 11.206C42.61 11.9713 42.4327 12.6527 42.078 13.25C41.7233 13.8473 41.2473 14.3187 40.65 14.664C40.0527 15 39.39 15.168 38.662 15.168ZM38.662 13.698C39.11 13.698 39.5067 13.5907 39.852 13.376C40.1973 13.1613 40.468 12.8673 40.664 12.494C40.8693 12.1113 40.972 11.682 40.972 11.206C40.972 10.73 40.8693 10.3053 40.664 9.932C40.468 9.55867 40.1973 9.26467 39.852 9.05C39.5067 8.83533 39.11 8.728 38.662 8.728C38.2233 8.728 37.8267 8.83533 37.472 9.05C37.1267 9.26467 36.8513 9.55867 36.646 9.932C36.45 10.3053 36.352 10.73 36.352 11.206C36.352 11.682 36.45 12.1113 36.646 12.494C36.8513 12.8673 37.1267 13.1613 37.472 13.376C37.8267 13.5907 38.2233 13.698 38.662 13.698ZM44.6898 18.08C44.5031 18.08 44.3164 18.0613 44.1298 18.024C43.9524 17.996 43.7891 17.9493 43.6398 17.884V16.526C43.7518 16.554 43.8871 16.5773 44.0458 16.596C44.2044 16.624 44.3584 16.638 44.5078 16.638C44.9464 16.638 45.2684 16.54 45.4738 16.344C45.6884 16.1573 45.8798 15.868 46.0478 15.476L46.5518 14.328L46.5238 15.658L43.2478 7.426H44.9417L47.3638 13.74H46.7897L49.1978 7.426H50.9058L47.5598 15.826C47.3824 16.274 47.1584 16.666 46.8878 17.002C46.6264 17.3473 46.3138 17.6133 45.9498 17.8C45.5951 17.9867 45.1751 18.08 44.6898 18.08ZM55.4077 15.168C54.6517 15.168 53.9797 14.9953 53.3917 14.65C52.8131 14.2953 52.3604 13.8193 52.0337 13.222C51.7071 12.6153 51.5437 11.9387 51.5437 11.192C51.5437 10.4267 51.7071 9.75 52.0337 9.162C52.3697 8.574 52.8177 8.112 53.3777 7.776C53.9377 7.43067 54.5724 7.258 55.2817 7.258C55.8511 7.258 56.3597 7.356 56.8077 7.552C57.2557 7.748 57.6337 8.01867 57.9417 8.364C58.2497 8.7 58.4831 9.08733 58.6417 9.526C58.8097 9.96467 58.8937 10.4313 58.8937 10.926C58.8937 11.0473 58.8891 11.1733 58.8797 11.304C58.8704 11.4347 58.8517 11.556 58.8237 11.668H52.7897V10.408H57.9277L57.1717 10.982C57.2651 10.5247 57.2324 10.1187 57.0737 9.764C56.9244 9.4 56.6911 9.11533 56.3737 8.91C56.0657 8.69533 55.7017 8.588 55.2817 8.588C54.8617 8.588 54.4884 8.69533 54.1617 8.91C53.8351 9.11533 53.5831 9.414 53.4057 9.806C53.2284 10.1887 53.1584 10.6553 53.1957 11.206C53.1491 11.7193 53.2191 12.1673 53.4057 12.55C53.6017 12.9327 53.8724 13.2313 54.2177 13.446C54.5724 13.6607 54.9737 13.768 55.4217 13.768C55.8791 13.768 56.2664 13.6653 56.5837 13.46C56.9104 13.2547 57.1671 12.9887 57.3537 12.662L58.6417 13.292C58.4924 13.6467 58.2591 13.9687 57.9417 14.258C57.6337 14.538 57.2604 14.762 56.8217 14.93C56.3924 15.0887 55.9211 15.168 55.4077 15.168ZM63.9937 15.168C63.2377 15.168 62.5657 14.9953 61.9777 14.65C61.399 14.2953 60.9463 13.8193 60.6197 13.222C60.293 12.6153 60.1297 11.9387 60.1297 11.192C60.1297 10.4267 60.293 9.75 60.6197 9.162C60.9557 8.574 61.4037 8.112 61.9637 7.776C62.5237 7.43067 63.1583 7.258 63.8677 7.258C64.437 7.258 64.9457 7.356 65.3937 7.552C65.8417 7.748 66.2197 8.01867 66.5277 8.364C66.8357 8.7 67.069 9.08733 67.2277 9.526C67.3957 9.96467 67.4797 10.4313 67.4797 10.926C67.4797 11.0473 67.475 11.1733 67.4657 11.304C67.4563 11.4347 67.4377 11.556 67.4097 11.668H61.3757V10.408H66.5137L65.7577 10.982C65.851 10.5247 65.8183 10.1187 65.6597 9.764C65.5103 9.4 65.277 9.11533 64.9597 8.91C64.6517 8.69533 64.2877 8.588 63.8677 8.588C63.4477 8.588 63.0743 8.69533 62.7477 8.91C62.421 9.11533 62.169 9.414 61.9917 9.806C61.8143 10.1887 61.7443 10.6553 61.7817 11.206C61.735 11.7193 61.805 12.1673 61.9917 12.55C62.1877 12.9327 62.4583 13.2313 62.8037 13.446C63.1583 13.6607 63.5597 13.768 64.0077 13.768C64.465 13.768 64.8523 13.6653 65.1697 13.46C65.4963 13.2547 65.753 12.9887 65.9397 12.662L67.2277 13.292C67.0783 13.6467 66.845 13.9687 66.5277 14.258C66.2197 14.538 65.8463 14.762 65.4077 14.93C64.9783 15.0887 64.507 15.168 63.9937 15.168ZM74.2709 15.168C73.4962 15.168 72.8149 14.9767 72.2269 14.594C71.6482 14.2113 71.2422 13.698 71.0089 13.054L72.2269 12.48C72.4322 12.9093 72.7122 13.25 73.0669 13.502C73.4309 13.754 73.8322 13.88 74.2709 13.88C74.6442 13.88 74.9475 13.796 75.1809 13.628C75.4142 13.46 75.5309 13.2313 75.5309 12.942C75.5309 12.7553 75.4795 12.606 75.3769 12.494C75.2742 12.3727 75.1435 12.2747 74.9849 12.2C74.8355 12.1253 74.6815 12.0693 74.5229 12.032L73.3329 11.696C72.6795 11.5093 72.1895 11.2293 71.8629 10.856C71.5455 10.4733 71.3869 10.03 71.3869 9.526C71.3869 9.06867 71.5035 8.672 71.7369 8.336C71.9702 7.99067 72.2922 7.72467 72.7029 7.538C73.1135 7.35133 73.5755 7.258 74.0889 7.258C74.7795 7.258 75.3955 7.43067 75.9369 7.776C76.4782 8.112 76.8609 8.58333 77.0849 9.19L75.8669 9.764C75.7175 9.4 75.4795 9.11067 75.1529 8.896C74.8355 8.68133 74.4762 8.574 74.0749 8.574C73.7295 8.574 73.4542 8.658 73.2489 8.826C73.0435 8.98467 72.9409 9.19467 72.9409 9.456C72.9409 9.63333 72.9875 9.78267 73.0809 9.904C73.1742 10.016 73.2955 10.1093 73.4449 10.184C73.5942 10.2493 73.7482 10.3053 73.9069 10.352L75.1389 10.716C75.7642 10.8933 76.2449 11.1733 76.5809 11.556C76.9169 11.9293 77.0849 12.3773 77.0849 12.9C77.0849 13.348 76.9635 13.7447 76.7209 14.09C76.4875 14.426 76.1609 14.692 75.7409 14.888C75.3209 15.0747 74.8309 15.168 74.2709 15.168ZM79.1702 18.08C78.9836 18.08 78.7969 18.0613 78.6102 18.024C78.4329 17.996 78.2696 17.9493 78.1202 17.884V16.526C78.2322 16.554 78.3676 16.5773 78.5262 16.596C78.6849 16.624 78.8389 16.638 78.9882 16.638C79.4269 16.638 79.7489 16.54 79.9542 16.344C80.1689 16.1573 80.3602 15.868 80.5282 15.476L81.0322 14.328L81.0042 15.658L77.7282 7.426H79.4222L81.8442 13.74H81.2702L83.6782 7.426H85.3862L82.0402 15.826C81.8629 16.274 81.6389 16.666 81.3682 17.002C81.1069 17.3473 80.7942 17.6133 80.4302 17.8C80.0756 17.9867 79.6556 18.08 79.1702 18.08ZM89.2689 15.168C88.4943 15.168 87.8129 14.9767 87.2249 14.594C86.6463 14.2113 86.2403 13.698 86.0069 13.054L87.2249 12.48C87.4303 12.9093 87.7103 13.25 88.0649 13.502C88.4289 13.754 88.8303 13.88 89.2689 13.88C89.6423 13.88 89.9456 13.796 90.1789 13.628C90.4123 13.46 90.5289 13.2313 90.5289 12.942C90.5289 12.7553 90.4776 12.606 90.3749 12.494C90.2723 12.3727 90.1416 12.2747 89.9829 12.2C89.8336 12.1253 89.6796 12.0693 89.5209 12.032L88.3309 11.696C87.6776 11.5093 87.1876 11.2293 86.8609 10.856C86.5436 10.4733 86.3849 10.03 86.3849 9.526C86.3849 9.06867 86.5016 8.672 86.7349 8.336C86.9683 7.99067 87.2903 7.72467 87.7009 7.538C88.1116 7.35133 88.5736 7.258 89.0869 7.258C89.7776 7.258 90.3936 7.43067 90.9349 7.776C91.4763 8.112 91.8589 8.58333 92.0829 9.19L90.8649 9.764C90.7156 9.4 90.4776 9.11067 90.1509 8.896C89.8336 8.68133 89.4743 8.574 89.0729 8.574C88.7276 8.574 88.4523 8.658 88.2469 8.826C88.0416 8.98467 87.9389 9.19467 87.9389 9.456C87.9389 9.63333 87.9856 9.78267 88.0789 9.904C88.1723 10.016 88.2936 10.1093 88.4429 10.184C88.5923 10.2493 88.7463 10.3053 88.9049 10.352L90.1369 10.716C90.7623 10.8933 91.2429 11.1733 91.5789 11.556C91.9149 11.9293 92.0829 12.3773 92.0829 12.9C92.0829 13.348 91.9616 13.7447 91.7189 14.09C91.4856 14.426 91.1589 14.692 90.7389 14.888C90.3189 15.0747 89.8289 15.168 89.2689 15.168ZM96.909 15.084C96.1157 15.084 95.4997 14.86 95.061 14.412C94.6223 13.964 94.403 13.334 94.403 12.522V8.854H93.073V7.426H93.283C93.6377 7.426 93.913 7.32333 94.109 7.118C94.305 6.91267 94.403 6.63267 94.403 6.278V5.69H95.985V7.426H97.707V8.854H95.985V12.452C95.985 12.7133 96.027 12.9373 96.111 13.124C96.195 13.3013 96.3303 13.4413 96.517 13.544C96.7037 13.6373 96.9463 13.684 97.245 13.684C97.3197 13.684 97.4037 13.6793 97.497 13.67C97.5903 13.6607 97.679 13.6513 97.763 13.642V15C97.6323 15.0187 97.4877 15.0373 97.329 15.056C97.1703 15.0747 97.0303 15.084 96.909 15.084ZM102.726 15.168C101.97 15.168 101.298 14.9953 100.71 14.65C100.131 14.2953 99.6788 13.8193 99.3521 13.222C99.0254 12.6153 98.8621 11.9387 98.8621 11.192C98.8621 10.4267 99.0254 9.75 99.3521 9.162C99.6881 8.574 100.136 8.112 100.696 7.776C101.256 7.43067 101.891 7.258 102.6 7.258C103.169 7.258 103.678 7.356 104.126 7.552C104.574 7.748 104.952 8.01867 105.26 8.364C105.568 8.7 105.801 9.08733 105.96 9.526C106.128 9.96467 106.212 10.4313 106.212 10.926C106.212 11.0473 106.207 11.1733 106.198 11.304C106.189 11.4347 106.17 11.556 106.142 11.668H100.108V10.408H105.246L104.49 10.982C104.583 10.5247 104.551 10.1187 104.392 9.764C104.243 9.4 104.009 9.11533 103.692 8.91C103.384 8.69533 103.02 8.588 102.6 8.588C102.18 8.588 101.807 8.69533 101.48 8.91C101.153 9.11533 100.901 9.414 100.724 9.806C100.547 10.1887 100.477 10.6553 100.514 11.206C100.467 11.7193 100.537 12.1673 100.724 12.55C100.92 12.9327 101.191 13.2313 101.536 13.446C101.891 13.6607 102.292 13.768 102.74 13.768C103.197 13.768 103.585 13.6653 103.902 13.46C104.229 13.2547 104.485 12.9887 104.672 12.662L105.96 13.292C105.811 13.6467 105.577 13.9687 105.26 14.258C104.952 14.538 104.579 14.762 104.14 14.93C103.711 15.0887 103.239 15.168 102.726 15.168ZM107.756 15V7.426H109.268V9.064L109.072 8.812C109.231 8.29867 109.52 7.91133 109.94 7.65C110.36 7.38867 110.841 7.258 111.382 7.258C111.989 7.258 112.525 7.42133 112.992 7.748C113.468 8.06533 113.785 8.49 113.944 9.022L113.496 9.064C113.72 8.45733 114.061 8.00467 114.518 7.706C114.985 7.40733 115.517 7.258 116.114 7.258C116.637 7.258 117.108 7.37933 117.528 7.622C117.957 7.86467 118.298 8.20067 118.55 8.63C118.802 9.05933 118.928 9.54933 118.928 10.1V15H117.346V10.534C117.346 10.1513 117.276 9.82933 117.136 9.568C117.005 9.29733 116.819 9.092 116.576 8.952C116.343 8.80267 116.067 8.728 115.75 8.728C115.433 8.728 115.153 8.80267 114.91 8.952C114.667 9.092 114.476 9.29733 114.336 9.568C114.196 9.83867 114.126 10.1607 114.126 10.534V15H112.558V10.534C112.558 10.1513 112.488 9.82933 112.348 9.568C112.217 9.29733 112.031 9.092 111.788 8.952C111.555 8.80267 111.275 8.728 110.948 8.728C110.631 8.728 110.351 8.80267 110.108 8.952C109.865 9.092 109.674 9.29733 109.534 9.568C109.403 9.83867 109.338 10.1607 109.338 10.534V15H107.756Z" fill="#5D87FF"/>
</svg>
